<?xml version="1.0" encoding="utf-8"?>
<!-- Generator: Adobe Illustrator 21.1.0, SVG Export Plug-In . SVG Version: 6.00 Build 0)  -->
<svg version="1.1" id="Layer_1" xmlns="http://www.w3.org/2000/svg" xmlns:xlink="http://www.w3.org/1999/xlink" x="0px" y="0px"
	 viewBox="0 0 215.8 72" style="enable-background:new 0 0 215.8 72;" xml:space="preserve">
<style type="text/css">
	.st0{fill:#007852;}
</style>
<g>
	<g>
		<path class="st0" d="M0,34.8c0,0,0,2.4,0,3.5C0,55.4,11.9,69.9,27.8,72V34.8H0z M21.5,63.4L21,63.2C10.5,58.1,5.9,46.7,6.3,41.6
			h15.1v21.8H21.5z"/>
		<path class="st0" d="M0,0v27.9h27.9V0H0z M21.5,21.5H6.4V6.4h15.1V21.5z"/>
		<path class="st0" d="M34.8,34.8V72c15.9-2.1,27.8-16.5,27.8-33.7c0-1.1,0-3.5,0-3.5H34.8z M41.2,41.6h15.1
			c0.4,5.1-4.2,16.5-14.7,21.6l-0.5,0.2V41.6H41.2z"/>
		<path class="st0" d="M34.8,0v27.9h27.9V0H34.8z M41.2,6.4h15.1v15.1H41.2V6.4z"/>
	</g>
	<g>
		<path d="M90.6,2.9C88.1,0,84.6,0,81.7,0h-6.6v22.1h6.4c3.2,0,5.9,0,8.1-1.8c0.9-0.7,3.7-3.4,3.7-9C93.4,7.9,92.4,5,90.6,2.9z
			 M89.4,11.3c0,2.9-0.9,5.1-2.6,6.4c-1.3,1-3.5,1.1-5.3,1.1c0,0-1.9,0-2.5,0V3.2c0.6,0,3.1,0,3.1,0c2.4,0,4.1,0.3,5.4,1.7
			C89.2,6.9,89.4,10.1,89.4,11.3z"/>
		<path d="M112.2,0v13.5c0,1.5,0,5.6-5.3,5.6c-2,0-3.6-0.6-4.5-1.9c-0.4-0.6-0.9-1.5-0.9-3.6V0h-3.8v13.4c0,3.4,0.7,4.7,1.3,5.6
			c2.2,3.2,6.2,3.6,7.9,3.6c1.8,0,5-0.4,7.2-3.1c1.8-2.3,1.8-4.8,1.8-5.9V0H112.2z"/>
		<path d="M138.6,21.6c-0.8-2.3-1-4.1-1.3-6.5V15c-0.2-2.2-0.9-3.4-2.4-4.1c0.5-0.2,1.1-0.6,1.6-1.1c1-1,1.6-2.5,1.6-4.1
			c0-2-0.9-3.7-2.5-4.7c-1.7-1.1-4-1.1-5.1-1.1h-8V22h3.7c0,0,0-8.8,0-9.6c0.7,0,3.3,0,3.3,0c3.4,0,3.9,0.7,4.3,3.6l0.1,0.5
			c0.2,1.7,0.5,3.9,0.9,5.3l0.1,0.3h4L138.6,21.6z M126.1,3.3c0.7,0,4.3,0,4.3,0c1.9,0,3.8,0.4,3.8,3c0,1.5-0.9,2.2-1.2,2.4
			c-0.4,0.3-1.4,0.4-2.6,0.4c0,0-3.6,0-4.3,0L126.1,3.3L126.1,3.3z"/>
		<path d="M158.1,0c0,0,0,8.4,0,9.1h-9.3c0-0.8,0-9.1,0-9.1H145v22.1h3.8c0,0,0-8.8,0-9.6h9.3c0,0.8,0,9.6,0,9.6h3.8V0H158.1z"/>
		<path d="M179.2,0h-3.7l-9.3,22.1h3.9c0,0,2.1-5.1,2.3-5.5h9.3c0.2,0.5,2.3,5.5,2.3,5.5h4.1L179.2,0z M180.6,13.4h-6.8
			c0.4-0.9,2.9-7.3,3.5-8.9C177.8,6,180.2,12.5,180.6,13.4z"/>
		<path d="M210.2,0c0,0-5.2,14.7-5.9,16.7c-0.7-2-5.7-16.7-5.7-16.7h-5.9v22.1h3.7c0,0,0-13.4,0-17c1.2,3.5,6,17,6,17h3.4
			c0,0,5-13.8,6.3-17.2c0,3.6,0,17.2,0,17.2h3.7V0H210.2z"/>
		<path d="M78.1,71.9c-2.4,0-2.9-1.4-2.8-3.1h2c0,0.9,0,1.7,1.1,1.7c0.7,0,1-0.4,1-1.1c0-1.7-4-1.8-4-4.6c0-1.5,0.7-2.7,3.1-2.7
			c1.9,0,2.9,0.9,2.7,2.8h-1.9c0-0.7-0.1-1.4-0.9-1.4c-0.6,0-1,0.4-1,1c0,1.8,4,1.6,4,4.6C81.3,71.6,79.6,71.9,78.1,71.9z"/>
		<path d="M91.7,62.3V69c0,1.4-0.8,2.9-3.2,2.9c-2.2,0-3.2-1.1-3.2-2.9v-6.7h2v6.6c0,1.2,0.5,1.6,1.2,1.6c0.9,0,1.3-0.6,1.3-1.6
			v-6.6H91.7z"/>
		<path d="M95.7,67.1c0-2.5,0-4.9,3.3-4.9c2,0,2.8,1.1,2.7,3.1h-1.9c0-1.3-0.2-1.7-0.8-1.7c-1.1,0-1.3,1-1.3,3.5
			c0,2.4,0.1,3.5,1.3,3.5c0.9,0,0.9-1.2,0.9-1.9h1.9c0,2.5-1,3.3-2.8,3.3C95.7,71.9,95.7,69.5,95.7,67.1z"/>
		<path d="M105.6,67.1c0-2.5,0-4.9,3.2-4.9c2,0,2.8,1.1,2.7,3.1h-1.9c0-1.3-0.2-1.7-0.8-1.7c-1.1,0-1.3,1-1.3,3.5
			c0,2.4,0.1,3.5,1.3,3.5c0.9,0,0.9-1.2,0.9-1.9h2c0,2.5-1,3.3-2.9,3.3C105.6,71.9,105.6,69.5,105.6,67.1z"/>
		<path d="M115.5,71.8v-9.4h5.1v1.5h-3.2v2.3h2.9v1.5h-2.9v2.8h3.3v1.4L115.5,71.8L115.5,71.8z"/>
		<path d="M127.1,71.9c-2.4,0-2.9-1.4-2.8-3.1h2c0,0.9,0,1.7,1.1,1.7c0.7,0,1-0.4,1-1.1c0-1.7-4-1.8-4-4.6c0-1.5,0.7-2.7,3.1-2.7
			c1.9,0,2.9,0.9,2.7,2.8h-1.9c0-0.7-0.1-1.4-0.9-1.4c-0.6,0-1,0.4-1,1c0,1.8,4,1.6,4,4.6C130.4,71.6,128.6,71.9,127.1,71.9z"/>
		<path d="M136.9,71.9c-2.4,0-2.9-1.4-2.8-3.1h2c0,0.9,0,1.7,1.1,1.7c0.7,0,1-0.4,1-1.1c0-1.7-4-1.8-4-4.6c0-1.5,0.7-2.7,3.1-2.7
			c1.9,0,2.9,0.9,2.7,2.8h-1.9c0-0.7-0.1-1.4-0.9-1.4c-0.6,0-1,0.4-1,1c0,1.8,4,1.6,4,4.6C140.2,71.6,138.4,71.9,136.9,71.9z"/>
		<path d="M149.6,71.8v-9.4h3.2l1.5,6.4l0,0l1.6-6.4h3.1v9.4h-2v-7.3l0,0l-1.8,7.3h-1.9l-1.7-7.3l0,0v7.3H149.6z"/>
		<path d="M162.3,71.8l2.6-9.4h2.6l2.6,9.4H168l-0.5-2.1h-2.7l-0.5,2.1H162.3z M166.1,64.2L166.1,64.2l-0.9,4.1h1.9L166.1,64.2z"/>
		<path d="M178.4,62.3v1.6h-2.2v7.9h-2v-7.9H172v-1.6H178.4z"/>
		<path d="M187.5,62.3v1.6h-2.2v7.9h-2v-7.9h-2.2v-1.6H187.5z"/>
		<path d="M191,71.8v-9.4h5.2v1.5H193v2.3h2.9v1.5H193v2.8h3.3v1.4L191,71.8L191,71.8z"/>
		<path d="M202,71.8h-2v-9.4h3.6c1.3,0,2.2,0.9,2.2,2.5c0,1.2-0.5,2.1-1.7,2.3l0,0c0.4,0.1,1.7,0.2,1.7,1.9c0,0.6,0,2.4,0.2,2.8
			h-1.9c-0.3-0.6-0.2-1.2-0.2-1.8c0-1.1,0.1-2.1-1.4-2.1H202V71.8z M202,66.4h0.9c0.8,0,1-0.8,1-1.4c0-0.9-0.4-1.2-1-1.2H202V66.4z"
			/>
		<path d="M212.4,71.9c-2.4,0-2.9-1.4-2.8-3.1h2c0,0.9,0,1.7,1.1,1.7c0.7,0,1-0.4,1-1.1c0-1.7-4-1.8-4-4.6c0-1.5,0.7-2.7,3.1-2.7
			c1.9,0,2.9,0.9,2.7,2.8h-1.9c0-0.7-0.1-1.4-0.9-1.4c-0.6,0-1,0.4-1,1c0,1.8,4,1.6,4,4.6C215.7,71.6,213.9,71.9,212.4,71.9z"/>
		<rect x="75.1" y="55.3" width="140.6" height="1"/>
		<path class="st0" d="M88.8,42.5c-0.1,0.4-0.2,1.3-0.9,2c-0.7,0.8-1.8,1.1-3.1,1.1c-3.7,0-5.6-2.7-5.6-7.9c0-3.1,0.7-8.4,5.6-8.4
			c3.7,0,4.1,2.5,4.2,3.3l0.1,0.4h0.4h3.6v-0.4c-0.4-4.7-4.4-6.4-8-6.4c-7.2,0-9.7,6-9.7,11.6c0,2.6,0.7,11.1,9.3,11.1
			c3.6,0,7.9-1.6,8.4-6.3v-0.5H89L88.8,42.5z"/>
		<path class="st0" d="M106.2,25.9c-2.1,0-5.1,0.5-7.4,3c-1.9,2-2.9,5-2.9,8.8c0,7.4,3.6,11.4,10,11.4c6.5,0,10.3-4.3,10.3-11.8
			C116.2,30.1,112.6,25.9,106.2,25.9z M110.5,44c-1,1.2-2.5,1.8-4.4,1.8c-2,0-3.4-0.6-4.4-1.8c-1.2-1.5-1.8-3.6-1.8-6.5
			c0-5.5,2.1-8.3,6.4-8.3c4.1,0,6,2.6,6,8.1C112.3,39,112,42,110.5,44z"/>
		<path class="st0" d="M123.9,45.1c0-0.8,0-18.7,0-18.7h-3.7v22.1h13.6v-3.4C133.8,45.1,124.6,45.1,123.9,45.1z"/>
		<path class="st0" d="M142.1,45.1c0-0.8,0-18.7,0-18.7h-3.7v22.1H152v-3.4C152,45.1,142.8,45.1,142.1,45.1z"/>
		<path class="st0" d="M161,45.2V39c0.8,0,9.9,0,9.9,0v-3.3c0,0-9.1,0-9.9,0v-5.8c0.8,0,10.4,0,10.4,0v-3.3h-14.2v22.1h14.4v-3.4
			C171.7,45.2,161.8,45.2,161,45.2z"/>
		<path class="st0" d="M186.3,36.5v3.3c0,0,4.2,0,4.9,0v5.6c-0.7,0.2-2.1,0.6-4.2,0.6c-2.4,0-4.2-0.7-5.3-1.9
			c-1.4-1.6-1.8-4.4-1.8-6.4c0-1.9,0.4-4.6,2.2-6.6c1-1.1,2.5-1.7,4.5-1.7c2.5,0,4.1,1.1,4.4,3l0.1,0.3h4v-0.4
			c-0.1-0.8-0.1-2.2-1.5-3.6c-2.1-2.2-4.8-2.4-6.6-2.4c-2.5,0-4.6,0.5-6.2,1.6c-4.4,3-4.7,8.5-4.7,10.2c0,3.4,1.1,6.4,3.1,8.4
			c1.8,1.9,4.4,2.8,8,2.8c3.8,0,6.6-1,7.7-1.3l0.3-0.1V36.7h-8.9V36.5z"/>
		<path class="st0" d="M205.4,45.2V39c0.8,0,9.9,0,9.9,0v-3.3c0,0-9.1,0-9.9,0v-5.8c0.8,0,10.4,0,10.4,0v-3.3h-14.2v22.1H216v-3.4
			C216,45.2,206.1,45.2,205.4,45.2z"/>
	</g>
</g>
</svg>
